<?xml version="1.0" encoding="utf-8"?>
<!-- Generator: Adobe Illustrator 19.2.1, SVG Export Plug-In . SVG Version: 6.00 Build 0)  -->
<svg version="1.1" id="layer" xmlns="http://www.w3.org/2000/svg" xmlns:xlink="http://www.w3.org/1999/xlink" x="0px" y="0px"
	 viewBox="0 0 652 652" style="enable-background:new 0 0 652 652;" xml:space="preserve">
<style type="text/css">
	.st0{fill:#DA1A32;}
	.st1{fill:#06080C;}
</style>
<g>
	<rect x="22.4" y="320.9" class="st0" width="575.9" height="14.7"/>
	<path class="st1" d="M99.3,313.1H82.9l-1-7.7c-4.2,5-11.2,9.5-23.4,9.5c-19.8,0-37.6-12.8-37.6-39.9c0-24.8,15.5-41.8,40.7-41.8
		c18.7,0,33.6,9.7,36.8,28.8H74.2c-1.8-6.4-6.5-9.8-13.1-9.8c-10,0-14.8,9.1-14.8,22.8c0,11,3.5,21,16.3,21c5.2,0,11.8-3.6,13.1-9
		H64.5v-16.8h34.8V313.1z"/>
	<path class="st1" d="M132.5,301.7c-4.4,0-7.1-1.9-7.1-4.7c0-7.3,9.7-5.6,17-9.2C143,295.6,140.4,301.7,132.5,301.7z M167.9,312.8
		v-1.1c-2.9-2.4-3-4-3-7.2v-26.4c0-13.5-1.6-23.4-28.4-23.4c-22.3,0-30.8,7-30.8,19h21.6c0.5-4.9,4.7-5.5,7.9-5.5
		c2.4,0,7.3,0.5,7.3,4.6c0,10.6-40.2-1.1-40.2,24.6c0,11.8,9.5,17,20.2,17c8.4,0,14.9-1.7,21.2-7.7l1.1,6L167.9,312.8L167.9,312.8z"
		/>
	<path class="st1" d="M170,256.3h20.4v11.4h0.2c3.1-8.8,8.6-13.1,17.4-13.1c1,0,1.9,0.2,2.9,0.3v22.4c-1.5-0.2-3.1-0.6-4.6-0.6
		c-9.2,0-13.8,4.3-13.8,16.5v19.5H170C170,312.8,170,256.3,170,256.3z"/>
	<path class="st1" d="M238.2,298.3c-7.3,0-8.8-6.9-8.8-12.8c0-6.3,2-13.4,9.5-13.4c7.4,0,9.6,6.8,9.6,13.1
		C248.5,291.7,246,298.3,238.2,298.3z M270.1,312.8v-77.7h-22.4V262c-4.7-5.6-9.7-7.3-16.8-7.3c-13.5,0-23.9,12.2-23.9,31
		c0,16,8.6,28.8,25.7,28.8c7.2,0,12.1-2.3,17.4-9.2v7.5L270.1,312.8L270.1,312.8z"/>
	<path class="st1" d="M273.5,256.3H294v8.8c5.1-6.8,10.6-10.5,19.1-10.5c14.9,0,21.9,8.7,21.9,24.3v33.9h-22.4V283
		c0-5.6-1.5-10.6-7.9-10.6c-6.9,0-8.7,4.4-8.7,11.6v28.8h-22.4V256.3z"/>
	<path class="st1" d="M359,278.2c0-6,3.8-9.8,10.5-9.8c5.3,0,9.9,4.6,9.9,9.8H359z M401.8,289.7c0.3-20.5-12.3-34.9-33.2-34.9
		c-18.1,0-32,11.9-32,30.4c0,19,14,29.3,32.1,29.3c13.2,0,27.4-4.6,31.3-18.7h-21.5c-1.6,3.3-4.9,5-8.4,5c-5.9,0-11.1-4.4-11.1-11.1
		H401.8z"/>
	<path class="st1" d="M403.8,256.3h20.4v11.4h0.2c3.1-8.8,8.6-13.1,17.4-13.1c1,0,1.9,0.2,2.9,0.3v22.4c-1.5-0.2-3.1-0.6-4.6-0.6
		c-9.2,0-13.8,4.3-13.8,16.5v19.5h-22.4V256.3z"/>
	<path class="st1" d="M276.3,348.1h4.9c13.6,0,18.9,4.3,18.9,20.5c0,14.7-6.5,20.9-18.3,20.9h-5.4V348.1z M284.3,407.6
		c24.9,0,41.2-11.2,41.2-40.4c0-25.6-15.5-37.2-40.6-37.2h-34.1v77.7L284.3,407.6L284.3,407.6z"/>
	<path class="st1" d="M346.5,373c0-6,3.8-9.8,10.5-9.8c5.3,0,9.9,4.6,9.9,9.8H346.5z M389.3,384.4c0.3-20.5-12.3-34.9-33.2-34.9
		c-18.1,0-32,11.9-32,30.4c0,19,14,29.3,32.1,29.3c13.2,0,27.4-4.6,31.3-18.7H366c-1.6,3.3-4.9,5-8.4,5c-5.9,0-11.1-4.4-11.1-11.1
		H389.3z"/>
	<path class="st1" d="M390.8,351.1h20.5v8.8c5.1-6.8,10.6-10.5,19.1-10.5c14.9,0,21.9,8.7,21.9,24.3v33.9h-22.4v-29.9
		c0-5.6-1.5-10.6-7.9-10.6c-6.9,0-8.7,4.4-8.7,11.6v28.8h-22.4L390.8,351.1L390.8,351.1z"/>
	<path class="st1" d="M451.7,351.1h22.4l9.9,35.7l9.8-35.7h21.6l-19.1,56.5h-25L451.7,351.1z"/>
	<path class="st1" d="M535.3,373c0-6,3.8-9.8,10.5-9.8c5.3,0,9.9,4.6,9.9,9.8H535.3z M578.1,384.4c0.3-20.5-12.3-34.9-33.2-34.9
		c-18.1,0-32,11.9-32,30.4c0,19,14,29.3,32.1,29.3c13.2,0,27.4-4.6,31.3-18.7h-21.5c-1.6,3.3-4.9,5-8.4,5c-5.9,0-11.1-4.4-11.1-11.1
		H578.1z"/>
	<path class="st1" d="M580,351.1h20.4v11.4h0.2c3.1-8.8,8.6-13.1,17.4-13.1c1,0,1.9,0.2,2.9,0.3v22.4c-1.5-0.2-3.1-0.6-4.6-0.6
		c-9.2,0-13.8,4.3-13.8,16.5v19.5H580L580,351.1L580,351.1z"/>
</g>
</svg>
