<svg id="visual" viewBox="0 0 960 540" width="960" height="540" xmlns="http://www.w3.org/2000/svg" xmlns:xlink="http://www.w3.org/1999/xlink" version="1.1"><rect x="0" y="0" width="960" height="540" fill="#f8faf9"></rect><defs><linearGradient id="grad1_0" x1="43.8%" y1="100%" x2="100%" y2="0%"><stop offset="14.444444444444446%" stop-color="#f8faf9" stop-opacity="1"></stop><stop offset="85.55555555555554%" stop-color="#f8faf9" stop-opacity="1"></stop></linearGradient></defs><defs><linearGradient id="grad2_0" x1="0%" y1="100%" x2="56.3%" y2="0%"><stop offset="14.444444444444446%" stop-color="#f8faf9" stop-opacity="1"></stop><stop offset="85.55555555555554%" stop-color="#f8faf9" stop-opacity="1"></stop></linearGradient></defs><g transform="translate(960, 540)"><path d="M-351 0C-344.6 -66.2 -338.2 -132.4 -304 -175.5C-269.8 -218.6 -207.8 -238.7 -152.5 -264.1C-97.2 -289.5 -48.6 -320.3 0 -351L0 0Z" fill="#65756d"></path></g><g transform="translate(0, 0)"><path d="M351 0C347.1 70.5 343.1 140.9 304 175.5C264.8 210.1 190.5 208.8 134 232.1C77.5 255.4 38.7 303.2 0 351L0 0Z" fill="#65756d"></path></g></svg>