<svg width="398" height="58" viewBox="0 0 398 58" fill="none" xmlns="http://www.w3.org/2000/svg">
<path d="M14.2285 57.0242C11.5864 57.0242 8.50343 56.6155 6.67432 55.7105C4.8452 54.7522 2.51889 53.5463 1.55352 51.5232C0.588152 49.5002 0.105469 46.8649 0.105469 43.6174V16.6259L15.1848 16.6258V38.9858C15.1848 40.5297 15.3357 42.0132 15.5423 42.5728C15.7488 43.1324 15.8707 44.215 17.1845 45.2003C18.4982 46.1857 21.4542 45.8572 22.4396 45.5288C23.4249 45.2003 24.7387 43.8491 25.0671 43.2297C25.3955 42.6102 25.724 41.5875 25.724 40.6021C25.724 39.6168 25.724 38.7994 25.724 37.7879V16.6259H41.4892V56.6958H27.3662V50.127C25.724 52.7545 21.4542 55.0536 20.7973 55.3821C20.1405 55.7105 17.3786 57.0242 14.2285 57.0242Z" fill="#005faf"/>
<path d="M67.4247 0.800171V56.6954H51.9414V0.800171H67.4247Z" fill="#005faf"/>
<path d="M94.4531 1.18842V39.9871C94.4531 41.8264 95.0448 44.8944 95.6161 45.7059C96.2282 46.4632 97.1668 46.8419 98.4318 46.8419C99.2479 46.8419 100.695 46.3589 101.28 46.185C101.937 45.8566 102.392 45.5784 102.922 45.1997L103.472 54.6666C102.452 55.5321 101.064 56.2083 99.3096 56.6952C97.5549 57.1821 95.0244 57.3521 93.4738 57.3521C90.6173 57.3521 88.2097 56.8923 86.251 55.9726C84.3331 54.9989 82.8641 53.4571 81.8439 51.3474C80.8646 49.2376 80.3749 46.4246 80.3749 42.9083V8.74259L94.4531 1.18842ZM103.579 16.2968V28.1207H74.0195V16.2968H103.579Z" fill="#005faf"/>
<path d="M111.129 56.6947V16.7664H125.909V24.1797C126.894 20.8953 127.336 20.1843 128.865 18.2678C130.437 16.298 132.199 15.3118 134.777 15.3118C135.782 15.3118 138.522 16.0841 139.047 16.2971C139.571 16.51 142.564 17.5124 142.782 17.7253L138.061 27.7917C137.668 27.5788 136.505 26.9082 135.762 26.7485C135.019 26.5887 134.211 26.5089 133.338 26.5089C132.027 26.5089 130.507 27.134 129.85 27.7917C129.193 28.4495 128.447 29.4618 127.879 30.4201C127.355 31.3784 126.566 32.3908 126.201 38.6312V56.6947H111.129Z" fill="#005faf"/>
<path fill-rule="evenodd" clip-rule="evenodd" d="M173.15 27.4224C173.15 26.2021 172.819 25.5263 172.21 24.8366C171.657 24.1468 170.24 23.8512 169.583 23.8512C168.926 23.8512 167.284 23.5228 164.656 24.5081C162.029 25.4935 161.372 26.8072 160.715 28.7779L145.969 28.3989C146.356 23.9953 149.876 20.9161 151.092 19.8683C154.474 16.954 159.914 15.9686 166.772 15.9686C171.584 15.9686 175.823 15.9687 179.108 16.9539C182.392 17.9392 185.348 20.2384 186.662 22.5375C187.975 24.8366 188.304 28.0528 188.304 31.077V43.4125C188.304 45.5878 188.662 51.2302 188.961 52.4257C189.26 53.6213 190.275 56.6955 190.275 56.6955H176.808C175.311 54.7821 174.876 50.7811 174.876 50.7811C174.563 51.2135 174.216 51.6464 173.852 52.0973C172.58 53.689 170.426 54.7552 168.269 55.7102C166.112 56.6652 160.992 57.3524 158.227 57.3524C155.296 57.3524 152.807 56.9279 150.76 56.079C148.769 55.2301 147.248 54.0099 146.197 52.4182C145.147 50.8265 144.621 48.943 144.621 46.7677C144.621 43.8496 144.95 41.2587 146.92 38.6312C148.891 36.0036 151.809 34.7227 155.46 34.033C159.11 33.3432 164.656 33.3761 168.597 32.3908C170.259 31.9754 172.284 30.6004 173.264 29.8815L173.15 27.4224ZM161.043 41.9156C161.559 41.4204 162.029 40.9303 163.391 40.3959C164.622 39.9133 172.163 37.7911 173.612 37.3848C173.612 37.3848 173.612 40.6018 173.612 41.9156C173.612 43.2294 172.539 44.8716 171.553 46.1853C170.568 47.4991 168.926 48.8129 166.627 49.1413C164.328 49.4698 161.372 48.4844 160.715 47.1707C160.058 45.8569 160.156 44.3966 160.156 43.9772C160.156 43.5578 160.527 42.4108 161.043 41.9156Z" fill="#005faf"/>
<path d="M222.145 9.3998C221.488 9.3998 221.159 9.39987 219.517 9.3998C217.875 9.39973 215.904 10.3851 215.863 11.3704C215.822 12.3557 215.863 14.3951 215.863 16.3598L222.191 16.4324V28.1212H215.863V56.8944H200.38V28.1212H193.57V16.104H200.38C200.38 13.0242 199.943 9.77559 200.796 7.7578C201.694 5.68691 203.256 3.72401 204.737 2.50272C205.394 1.96103 207.036 0.860194 208.35 0.860229H226.415L224.115 9.3998H222.145Z" fill="#005faf"/>
<path d="M244.202 16.2964V57.2121H228.719V16.2964H244.202Z" fill="#005faf"/>
<path d="M228.719 10.3846V0.860229H244.202V10.3846H228.719Z" fill="#005faf"/>
<path d="M269.733 0.800171V56.6954H254.25V0.800171H269.733Z" fill="#005faf"/>
<path d="M296.785 1.18842V39.9871C296.785 41.8264 297.377 44.8944 297.948 45.7059C298.56 46.4632 299.499 46.8419 300.764 46.8419C301.58 46.8419 303.027 46.3589 303.612 46.185C304.269 45.8566 304.724 45.5784 305.254 45.1997L305.804 54.6666C304.784 55.5321 303.396 56.2083 301.642 56.6952C299.887 57.1821 297.356 57.3521 295.806 57.3521C292.949 57.3521 290.542 56.8923 288.583 55.9726C286.665 54.9989 285.196 53.4571 284.176 51.3474C283.197 49.2376 282.707 46.4246 282.707 42.9083V8.74259L296.785 1.18842ZM305.911 16.2968V28.1207H276.352V16.2968H305.911Z" fill="#005faf"/>
<path fill-rule="evenodd" clip-rule="evenodd" d="M336.698 57.024C331.544 57.024 326.256 55.4415 324.285 54.7249C322.315 54.0083 318.045 51.112 316.403 49.1413C314.76 47.1707 312.133 44.2147 312.133 36.6605C312.133 29.1064 313.375 27.6046 314.396 25.4392C315.417 23.2738 319.421 19.531 322.971 17.9393C326.579 16.2946 330.7 15.3118 335.452 15.3118C340.319 15.3118 344.915 16.791 348.293 18.4358C351.729 20.0274 354.334 22.2823 356.109 25.2004C357.884 28.1185 358.772 31.5141 358.772 35.3872C358.772 36.2361 358.714 37.1115 358.6 38.0135C358.543 38.9154 358.457 39.6317 358.342 40.1622H327.57V41.9156C327.57 42.9009 327.898 45.8569 331.182 47.1707C333.646 48.156 336.698 47.8819 336.698 47.8819C338.186 47.8819 339.332 47.5901 340.133 47.0065C340.992 46.3698 341.364 45.8569 342.021 45.2L356.801 46.5138C355.816 48.8129 354.379 50.3465 352.203 52.0973C350.027 53.7951 348.34 55.1897 345.306 56.0386C342.328 56.8875 339.904 57.024 336.698 57.024ZM343.006 33.3976H338.737H327.57C327.57 31.1162 327.57 30.7486 327.898 28.7779C328.226 26.8073 330.141 25.4392 330.526 25.165C330.91 24.8909 332.168 23.8513 335.124 23.8513C338.08 23.8513 339.722 25.4392 340.707 26.8073C341.693 28.1753 343.006 30.5326 343.006 33.3976Z" fill="#005faf"/>
<path d="M365.348 56.6947V16.7664H380.128V24.1797C381.113 20.8953 381.555 20.1843 383.084 18.2678C384.656 16.298 386.418 15.3118 388.996 15.3118C390 15.3118 392.741 16.0841 393.265 16.2971C393.789 16.51 396.783 17.5124 397.001 17.7253L392.28 27.7917C391.887 27.5788 390.724 26.9082 389.981 26.7485C389.238 26.5887 388.43 26.5089 387.556 26.5089C386.246 26.5089 384.726 27.134 384.069 27.7917C383.412 28.4495 382.666 29.4618 382.098 30.4201C381.574 31.3784 380.784 32.3908 380.419 38.6312V56.6947H365.348Z" fill="#005faf"/>
</svg>
